<svg xmlns="http://www.w3.org/2000/svg" viewBox="0 0 36 36" fill="none">
  <g transform="rotate(-38 18 18)">
    <path
      stroke="#fff"
      stroke-width="2"
      stroke-linecap="round"
      stroke-linejoin="round"
      d="M13.5 10.5c0-.9.8-1.7 1.7-1.7h2l1.2-2.1a1.7 1.7 0 0 1 3 0l1.2 2.1h2c.9 0 1.7.8 1.7 1.7v10.6c0 .9-.8 1.7-1.7 1.7h-9.4c-.9 0-1.7-.8-1.7-1.7V10.5Z"
    />
  </g>
  <path
    stroke="#fff"
    stroke-width="2"
    stroke-linecap="round"
    d="M24.5 8.5c1.5.5 2.8 1.6 3.6 3M27 6c2 1 3.6 2.6 4.6 4.6"
  />
</svg>
